<svg width="58" height="57" viewBox="0 0 58 57" fill="none" xmlns="http://www.w3.org/2000/svg">
<path d="M6.224 26.732C7.364 25.94 8.672 25.544 10.148 25.544C11.42 25.544 12.434 25.832 13.19 26.408C13.946 26.984 14.324 27.788 14.324 28.82C14.324 29.312 14.228 29.774 14.036 30.206C13.856 30.638 13.58 31.034 13.208 31.394C12.848 31.754 12.494 32.06 12.146 32.312C11.81 32.552 11.384 32.822 10.868 33.122C10.808 33.158 10.622 33.266 10.31 33.446C10.01 33.626 9.818 33.74 9.734 33.788C9.662 33.836 9.494 33.944 9.23 34.112C8.978 34.268 8.81 34.382 8.726 34.454C8.654 34.526 8.522 34.64 8.33 34.796C8.15 34.952 8.024 35.084 7.952 35.192C7.892 35.3 7.808 35.438 7.7 35.606C7.604 35.762 7.538 35.918 7.502 36.074C7.466 36.23 7.448 36.398 7.448 36.578L14.414 36.56V38H5.792V37.28C5.792 36.608 5.9 36.002 6.116 35.462C6.332 34.91 6.638 34.442 7.034 34.058C7.442 33.662 7.844 33.332 8.24 33.068C8.636 32.792 9.098 32.498 9.626 32.186C9.746 32.126 9.836 32.078 9.896 32.042C10.988 31.406 11.702 30.92 12.038 30.584C12.554 30.056 12.812 29.462 12.812 28.802C12.812 28.202 12.566 27.746 12.074 27.434C11.594 27.11 10.91 26.948 10.022 26.948C8.726 26.948 7.46 27.38 6.224 28.244V26.732ZM16.8119 36.47C15.8999 35.306 15.4439 33.776 15.4439 31.88C15.4439 29.984 15.8999 28.454 16.8119 27.29C17.7239 26.126 19.0679 25.544 20.8439 25.544C22.6319 25.544 23.9819 26.126 24.8939 27.29C25.8059 28.442 26.2619 29.972 26.2619 31.88C26.2619 33.788 25.8059 35.324 24.8939 36.488C23.9819 37.64 22.6319 38.216 20.8439 38.216C19.0679 38.216 17.7239 37.634 16.8119 36.47ZM23.7599 35.516C24.4079 34.664 24.7319 33.452 24.7319 31.88C24.7319 30.308 24.4079 29.102 23.7599 28.262C23.1239 27.41 22.1519 26.984 20.8439 26.984C19.5359 26.984 18.5639 27.41 17.9279 28.262C17.2919 29.102 16.9739 30.308 16.9739 31.88C16.9739 33.452 17.2919 34.664 17.9279 35.516C18.5639 36.356 19.5359 36.776 20.8439 36.776C22.1519 36.776 23.1239 36.356 23.7599 35.516ZM28.6582 36.47C27.7462 35.306 27.2902 33.776 27.2902 31.88C27.2902 29.984 27.7462 28.454 28.6582 27.29C29.5702 26.126 30.9142 25.544 32.6902 25.544C34.4782 25.544 35.8282 26.126 36.7402 27.29C37.6522 28.442 38.1082 29.972 38.1082 31.88C38.1082 33.788 37.6522 35.324 36.7402 36.488C35.8282 37.64 34.4782 38.216 32.6902 38.216C30.9142 38.216 29.5702 37.634 28.6582 36.47ZM35.6062 35.516C36.2542 34.664 36.5782 33.452 36.5782 31.88C36.5782 30.308 36.2542 29.102 35.6062 28.262C34.9702 27.41 33.9982 26.984 32.6902 26.984C31.3822 26.984 30.4102 27.41 29.7742 28.262C29.1382 29.102 28.8202 30.308 28.8202 31.88C28.8202 33.452 29.1382 34.664 29.7742 35.516C30.4102 36.356 31.3822 36.776 32.6902 36.776C33.9982 36.776 34.9702 36.356 35.6062 35.516ZM39.5324 28.712C39.5324 27.848 39.9104 27.104 40.6664 26.48C41.4224 25.856 42.5324 25.544 43.9964 25.544C45.3524 25.544 46.4444 25.874 47.2724 26.534C48.1004 27.194 48.5264 27.986 48.5504 28.91C48.5864 30.17 48.0284 31.202 46.8764 32.006C48.2804 32.702 48.9824 33.662 48.9824 34.886C48.9824 35.822 48.5684 36.614 47.7404 37.262C46.9244 37.898 45.7124 38.216 44.1044 38.216C42.5084 38.216 41.2724 37.868 40.3964 37.172C39.5324 36.476 39.1004 35.63 39.1004 34.634C39.1004 34.034 39.2744 33.44 39.6224 32.852C39.9824 32.252 40.5044 31.748 41.1884 31.34C40.0844 30.668 39.5324 29.792 39.5324 28.712ZM44.1764 32.492C43.5524 32.324 42.9824 32.144 42.4664 31.952C41.8664 32.24 41.4044 32.612 41.0804 33.068C40.7684 33.524 40.6124 33.992 40.6124 34.472C40.6124 35.204 40.9124 35.78 41.5124 36.2C42.1244 36.608 43.0004 36.812 44.1404 36.812C45.1004 36.812 45.8924 36.644 46.5164 36.308C47.1524 35.96 47.4704 35.51 47.4704 34.958C47.4704 34.49 47.3024 34.094 46.9664 33.77C46.6424 33.434 46.3244 33.206 46.0124 33.086C45.7004 32.966 45.1844 32.798 44.4644 32.582C44.3324 32.546 44.2364 32.516 44.1764 32.492ZM47.0384 29.18C47.0384 28.544 46.7684 28.016 46.2284 27.596C45.6884 27.164 44.9324 26.948 43.9604 26.948C43.0724 26.948 42.3644 27.116 41.8364 27.452C41.3084 27.776 41.0444 28.19 41.0444 28.694C41.0444 29.042 41.1164 29.348 41.2604 29.612C41.4164 29.864 41.6444 30.08 41.9444 30.26C42.2564 30.428 42.5384 30.566 42.7904 30.674C43.0424 30.77 43.3784 30.878 43.7984 30.998C43.8464 31.01 43.8824 31.022 43.9064 31.034C43.9304 31.034 43.9604 31.04 43.9964 31.052C44.0324 31.064 44.0684 31.076 44.1044 31.088C44.1404 31.1 44.3444 31.16 44.7164 31.268C45.1004 31.364 45.3944 31.442 45.5984 31.502C46.5584 30.878 47.0384 30.104 47.0384 29.18Z" fill="#B3B5B7"/>
<path d="M51.7358 18.3771C52.0132 18.3771 52.2853 18.2626 52.4814 18.0634C52.6777 17.8645 52.7905 17.5884 52.7905 17.307C52.7905 17.0255 52.6777 16.7494 52.4814 16.5504C52.2853 16.3513 52.0132 16.2368 51.7358 16.2368C51.4585 16.2368 51.1863 16.3512 50.9902 16.5504C50.794 16.7495 50.6812 17.0255 50.6812 17.307C50.6812 17.5884 50.7939 17.8645 50.9902 18.0634C51.1863 18.2626 51.4585 18.3771 51.7358 18.3771Z" fill="#B3B5B7"/>
<path d="M23.734 47.4492H23.7183C23.1359 47.4492 22.6636 47.9284 22.6636 48.5194C22.6636 49.1103 23.1359 49.5895 23.7183 49.5895H23.734C24.3164 49.5895 24.7887 49.1103 24.7887 48.5194C24.7887 47.9284 24.3164 47.4492 23.734 47.4492Z" fill="#B3B5B7"/>
<path d="M56 43.3841V9.21352C56 7.50887 54.5806 6.12201 52.8359 6.12201H49.2232V5.50371C49.2232 3.57172 47.6146 2 45.6373 2C43.6599 2 42.0513 3.57172 42.0513 5.50371V6.12201H32.5725V5.50371C32.5725 3.57172 30.9639 2 28.9866 2C27.0093 2 25.4007 3.57172 25.4007 5.50371V6.12201H15.9219V5.50371C15.9219 3.57172 14.3133 2 12.3359 2C10.3586 2 8.75 3.57172 8.75 5.50371V6.12201H5.16406C3.4194 6.12201 2 7.50887 2 9.21352V51.6703C2 53.3749 3.4194 54.7618 5.16406 54.7618H44.3553C44.6464 54.7618 44.91 54.6465 45.1008 54.4601C45.1009 54.46 45.101 54.46 45.1011 54.4599L55.6911 44.1128C55.8819 43.9262 56 43.6686 56 43.3841ZM44.1607 5.50371C44.1607 4.70816 44.8231 4.06101 45.6373 4.06101C46.4515 4.06101 47.1138 4.70816 47.1138 5.50371V10.5532C47.1138 11.3487 46.4515 11.9959 45.6373 11.9959C44.8231 11.9959 44.1607 11.3487 44.1607 10.5532V5.50371ZM27.51 5.50371C27.51 4.70816 28.1724 4.06101 28.9866 4.06101C29.8008 4.06101 30.4632 4.70816 30.4632 5.50371V10.5532C30.4632 11.3487 29.8008 11.9959 28.9866 11.9959C28.1724 11.9959 27.51 11.3487 27.51 10.5532V5.50371ZM10.8594 5.50371C10.8594 4.70816 11.5217 4.06101 12.3359 4.06101C13.1502 4.06101 13.8125 4.70816 13.8125 5.50371V10.5532C13.8125 11.3487 13.1502 11.9959 12.3359 11.9959C11.5217 11.9959 10.8594 11.3487 10.8594 10.5532V5.50371ZM4.10938 51.6703V49.781H18.5059C19.0883 49.781 19.5605 49.3196 19.5605 48.7505C19.5605 48.1815 19.0883 47.72 18.5059 47.72H4.10938V19.7247H46.5078C47.0902 19.7247 47.5625 19.2632 47.5625 18.6942C47.5625 18.1251 47.0902 17.6637 46.5078 17.6637H4.10938V9.21352C4.10938 8.6453 4.58251 8.18302 5.16406 8.18302H8.75V10.5532C8.75 12.4852 10.3586 14.0569 12.3359 14.0569C14.3133 14.0569 15.9219 12.4852 15.9219 10.5532V8.18302H25.4007V10.5532C25.4007 12.4852 27.0093 14.0569 28.9866 14.0569C30.9639 14.0569 32.5725 12.4852 32.5725 10.5532V8.18302H42.0513V10.5532C42.0513 12.4852 43.6599 14.0569 45.6373 14.0569C47.6146 14.0569 49.2232 12.4852 49.2232 10.5532V8.18302H52.8359C53.4175 8.18302 53.8906 8.6453 53.8906 9.21352V42.3536H46.4647C44.72 42.3536 43.3006 43.7404 43.3006 45.4451V52.7008H5.16406C4.58251 52.7008 4.10938 52.2385 4.10938 51.6703ZM45.41 51.2433V45.445C45.41 44.8768 45.8831 44.4145 46.4647 44.4145H52.3991L45.41 51.2433Z" fill="#B3B5B7"/>
</svg>
