<svg width="45" height="57" viewBox="0 0 45 57" fill="none" xmlns="http://www.w3.org/2000/svg">
<path d="M36.4311 47.8804C36.0223 47.7529 35.5866 47.9808 35.4586 48.39L34.8281 50.4084C34.2603 52.226 32.5994 53.4473 30.695 53.4473H13.7748C11.8704 53.4473 10.2095 52.226 9.64173 50.4084L3.96141 32.2255C3.19115 29.7597 3.51961 27.0816 4.86283 24.8779C5.08601 24.5118 4.97007 24.0342 4.60393 23.8109C4.2377 23.5876 3.76007 23.7035 3.5369 24.0698C1.96128 26.655 1.57579 29.7963 2.47938 32.6885L8.15969 50.8713C8.93099 53.3409 11.1875 55 13.7748 55H30.695C33.2823 55 35.5388 53.3409 36.3102 50.8713L36.9408 48.853C37.0685 48.4437 36.8403 48.0083 36.4311 47.8804V47.8804Z" fill="#B3B5B7"/>
<path d="M36.0993 19.9933C34.3416 19.229 32.558 18.6013 30.7843 18.12L32.4348 14.3939H36.386C37.4322 14.3939 38.2834 13.5427 38.2834 12.4965V8.48732C38.2834 7.44109 37.4322 6.58988 36.386 6.58988H32.4912C32.3959 6.42964 32.2949 6.27209 32.1867 6.11837L30.3668 3.53534C29.6894 2.57399 28.583 2 27.4068 2H17.0625C15.8865 2 14.7799 2.57399 14.1025 3.53545L12.2827 6.11837C10.8005 8.22222 10.5273 10.9909 11.5695 13.3441L13.6463 18.0324C11.8106 18.5214 9.97728 19.1728 8.18408 19.9758C7.45947 20.2996 6.77223 20.7065 6.14151 21.185C5.79991 21.4442 5.73304 21.9311 5.99224 22.2728C6.14493 22.474 6.3767 22.5799 6.61126 22.5799C6.77482 22.5799 6.93961 22.5286 7.07988 22.4222C7.6164 22.0151 8.20106 21.6691 8.81811 21.3932C10.6134 20.5892 12.4488 19.9448 14.2833 19.4709L14.8222 20.6875C14.8553 20.7621 14.8915 20.8348 14.9299 20.9058C13.1003 21.3619 11.2636 22.0001 9.45277 22.8101C6.04886 24.3333 4.32502 28.182 5.44309 31.7624L11.1232 49.9455C11.4886 51.1112 12.5543 51.8944 13.775 51.8944H30.6946C31.9161 51.8944 32.9813 51.1109 33.3455 49.9448L38.9985 31.8504C40.1294 28.2309 38.3507 24.3581 34.8612 22.8419C33.0737 22.0647 31.273 21.4437 29.4911 20.9884C29.5475 20.8912 29.6007 20.7916 29.647 20.6873L30.1477 19.5569C31.9243 20.026 33.715 20.6498 35.4801 21.4172C39.6984 23.2515 41.848 27.936 40.48 32.3139L36.5393 44.9314C36.4114 45.3407 36.6396 45.7761 37.0489 45.9041C37.1259 45.9281 37.2038 45.9396 37.2806 45.9396C37.6112 45.9396 37.9177 45.7266 38.0214 45.3945L41.9622 32.7769C43.5672 27.6403 41.0467 22.1445 36.0993 19.9933V19.9933ZM36.386 8.14261C36.576 8.14261 36.7307 8.29727 36.7307 8.48732V12.4965C36.7307 12.6865 36.576 12.8412 36.386 12.8412H33.0997C33.6421 11.3196 33.6611 9.66253 33.1842 8.14251H36.386V8.14261ZM13.5521 7.01264L15.3718 4.42972C15.7587 3.88057 16.3908 3.55273 17.0625 3.55273H27.4068C28.0785 3.55273 28.7106 3.88057 29.0975 4.42972L30.9173 7.01264C32.0872 8.67313 32.3028 10.8581 31.4803 12.7153L28.2275 20.0585C27.9778 20.6219 27.4183 20.9861 26.8021 20.9861H17.6673C17.0511 20.9861 16.4917 20.6219 16.242 20.0586L12.9893 12.7154C12.1666 10.8581 12.3824 8.67303 13.5521 7.01264V7.01264ZM22.2347 36.8278C23.9021 36.8278 25.2587 35.4713 25.2587 33.8038V28.3957C25.9979 29.1627 26.4267 30.1938 26.4267 31.301V40.3224C26.4267 42.6341 24.5461 44.5148 22.2344 44.5148C19.9226 44.5148 18.042 42.6341 18.042 40.3224V31.301C18.042 30.1942 18.471 29.163 19.2108 28.3955V33.8038C19.2108 35.4713 20.5672 36.8278 22.2347 36.8278V36.8278ZM23.7059 33.8038C23.7059 34.6151 23.0459 35.2751 22.2347 35.2751C21.4234 35.2751 20.7635 34.6151 20.7635 33.8038V22.5387H23.7059V33.8038ZM37.5166 31.3875L31.8636 49.4821C31.703 49.9963 31.2333 50.3419 30.6948 50.3419H13.7752C13.2367 50.3419 12.7664 49.996 12.6053 49.482L6.92543 31.2997C6.04182 28.4699 7.40109 25.4295 10.0871 24.2277C12.1272 23.315 14.1989 22.6321 16.2496 22.1945C16.6804 22.4154 17.164 22.5389 17.6673 22.5389H19.2108V26.4161C17.5209 27.4602 16.4892 29.2902 16.4892 31.3012V40.3226C16.4892 43.4905 19.0665 46.0677 22.2344 46.0677C25.4022 46.0677 27.9795 43.4905 27.9795 40.3226V31.3012C27.9795 29.2894 26.9481 27.4596 25.2587 26.4166V22.5389H26.8021C27.2594 22.5389 27.7009 22.4381 28.101 22.2541C30.1276 22.699 32.1922 23.3748 34.2424 24.2662C37.0027 25.4655 38.4103 28.527 37.5166 31.3875Z" fill="#B3B5B7"/>
<path d="M30.7693 28.7244H31.8023C32.231 28.7244 32.5786 28.3769 32.5786 27.948C32.5786 27.5191 32.231 27.1716 31.8023 27.1716H30.7693C30.3405 27.1716 29.9929 27.5191 29.9929 27.948C29.9929 28.3769 30.3405 28.7244 30.7693 28.7244Z" fill="#B3B5B7"/>
<path d="M30.7693 35.3812H31.8023C32.231 35.3812 32.5786 35.0337 32.5786 34.6049C32.5786 34.176 32.231 33.8285 31.8023 33.8285H30.7693C30.3405 33.8285 29.9929 34.176 29.9929 34.6049C29.9929 35.0337 30.3405 35.3812 30.7693 35.3812Z" fill="#B3B5B7"/>
<path d="M31.8023 40.4855H30.7693C30.3405 40.4855 29.9929 40.833 29.9929 41.2618C29.9929 41.6907 30.3405 42.0382 30.7693 42.0382H31.8023C32.231 42.0382 32.5786 41.6907 32.5786 41.2618C32.5786 40.833 32.231 40.4855 31.8023 40.4855Z" fill="#B3B5B7"/>
</svg>
