<svg width="57" height="55" viewBox="0 0 57 55" fill="none" xmlns="http://www.w3.org/2000/svg">
<path d="M33.1301 47.3355C33.2236 47.9389 33.6025 48.4652 34.1548 48.7585C34.7071 49.0523 35.3691 49.0795 35.9451 48.832L44.4683 45.1876C44.8905 45.0076 45.1006 44.5456 44.9529 44.1224L40.676 31.8221C39.9915 29.8815 37.9512 28.7112 35.8639 29.0618L34.5272 29.294C32.238 29.6805 30.6913 31.7724 31.0523 33.9949L33.1301 47.3355ZM35.226 47.2534C35.1583 47.2842 35.0795 47.2811 35.0147 47.2447C34.9474 47.2104 34.9013 47.146 34.8919 47.0726L32.8083 33.743C32.7655 33.4559 32.7757 33.1638 32.8389 32.8803L34.3457 34.0328C35.0734 34.582 35.6163 35.3282 35.9051 36.1771L39.1708 45.5714L35.226 47.2534ZM34.8376 30.9985L36.1739 30.7663C36.3175 30.7414 36.4632 30.7292 36.6092 30.7292C37.6824 30.732 38.6361 31.3929 38.9844 32.3757L43.0043 43.9337L40.8061 44.873L37.5935 35.6327C37.1953 34.4647 36.4481 33.4374 35.4462 32.6813L33.8126 31.4304C34.1161 31.2133 34.4664 31.0656 34.8376 30.9985V30.9985Z" fill="#B3B5B7"/>
<path d="M3.28656 9.29535L16.7286 13.1911C16.9103 13.2442 17.0792 13.3329 17.2247 13.4521L21.9659 17.3373L22.7303 17.9659L28.9249 49.6355C29.238 51.2453 30.2806 52.627 31.757 53.3873C33.2334 54.1472 34.9818 54.2032 36.5052 53.5389L45.1425 49.7858C45.984 50.7662 47.3722 51.101 48.5796 50.6147L53.1354 48.7766C54.6695 48.1581 55.4034 46.434 54.7754 44.9251L46.4784 25.0047L47.0941 24.3052C48.2425 22.9968 48.0979 21.0214 46.771 19.8882L37.2778 11.7985C36.6387 11.2542 35.806 10.9822 34.9633 11.0422C34.1202 11.1022 33.336 11.4892 32.783 12.1178L31.2477 13.8647L27.797 11.0369H27.7917L21.4006 5.92368C21.073 5.66104 20.6951 5.46569 20.2896 5.34897L5.72846 1.12779C4.04229 0.640621 2.27329 1.58902 1.77593 3.24709L1.13146 5.39963C0.890812 6.19725 0.983115 7.05608 1.38735 7.78724C1.79159 8.51799 2.47479 9.06068 3.28656 9.29535V9.29535ZM32.0314 15.6841L34.1453 13.2794C34.3856 13.0063 34.7263 12.8381 35.0931 12.8117C35.4594 12.7858 35.8216 12.9041 36.0993 13.1404L45.5925 21.2269C46.1694 21.7194 46.232 22.5778 45.733 23.1464L44.7556 24.2581C44.5331 24.5106 44.4738 24.8649 44.6023 25.1737L53.1098 45.5918C53.3612 46.1953 53.0674 46.8851 52.4538 47.1323L47.8964 48.9695C47.6013 49.0883 47.2704 49.0871 46.9762 48.9659C46.6824 48.8447 46.4496 48.6133 46.3289 48.3231C46.237 48.1018 46.0581 47.9263 45.8323 47.8367C45.6069 47.7472 45.3543 47.7508 45.1318 47.8477L35.7779 51.9124C34.756 52.3566 33.5841 52.3181 32.5947 51.8083C31.6049 51.2984 30.9057 50.3727 30.6947 49.2934L24.4395 17.3142C24.4 17.1135 24.2912 16.9324 24.1317 16.8015L23.849 16.5696L27.2976 12.9325L30.7759 15.7817C31.1525 16.0898 31.7108 16.0448 32.0314 15.6808V15.6841ZM2.85801 5.9026L3.50084 3.74844C3.60426 3.40151 3.84409 3.1097 4.16673 2.93663C4.48938 2.76398 4.86848 2.72426 5.2208 2.8268L19.7729 7.04027C19.9493 7.09134 20.1133 7.17605 20.2554 7.28994L25.9048 11.8054L22.4645 15.4356L18.3768 12.0842C18.043 11.8098 17.6557 11.606 17.2383 11.4856L3.79423 7.59269C3.06116 7.37991 2.6425 6.62363 2.85801 5.9026Z" fill="#B3B5B7"/>
<path d="M7.5002 30.9985C9.23533 31.035 10.911 30.408 12.1383 29.2627C13.3656 28.1173 14.0379 26.5536 13.9984 24.934C13.9984 22.1722 10.4019 17.1848 8.90258 15.5707C8.54051 15.2066 8.03225 15 7.5002 15C6.96771 15 6.45945 15.2066 6.09738 15.5707C4.5981 17.1848 1.00162 22.1722 1.00162 24.934C0.962519 26.5536 1.63439 28.1173 2.86169 29.2627C4.08899 30.408 5.76463 31.035 7.5002 30.9985ZM7.5002 16.7037C9.13759 18.4661 12.1417 22.9285 12.1417 24.934C12.1846 26.0948 11.7095 27.2199 10.8294 28.0412C9.9497 28.8625 8.74365 29.3059 7.5002 29.2658C6.25632 29.3059 5.05069 28.8625 4.17059 28.0412C3.29048 27.2199 2.81537 26.0948 2.85829 24.934C2.85829 22.9292 5.86323 18.4669 7.5002 16.7037V16.7037Z" fill="#B3B5B7"/>
<path d="M26.6026 17.0311C26.3969 17.0977 26.2201 17.2646 26.1117 17.4953C26.0034 17.7265 25.9722 18.0025 26.0253 18.2624L26.4251 20.2403C26.5159 20.687 26.8343 20.9995 27.1993 21C27.2663 21.0004 27.3329 20.9898 27.3977 20.9685C27.8257 20.8308 28.0841 20.2806 27.975 19.7401L27.5753 17.7616C27.5229 17.5018 27.3911 17.279 27.2088 17.1421C27.0265 17.0052 26.8084 16.965 26.6026 17.0311V17.0311Z" fill="#B3B5B7"/>
<path d="M28.0234 23.0748L29.2674 28.3261C29.361 28.7207 29.7145 29 30.1212 29C30.1895 29.0004 30.257 28.9924 30.3233 28.9763C30.7941 28.8658 31.0866 28.3958 30.977 27.9258L29.7334 22.6745C29.6611 22.37 29.4317 22.1268 29.1311 22.0371C28.8306 21.9469 28.5048 22.0239 28.2761 22.2382C28.0479 22.453 27.9515 22.7727 28.0234 23.0772V23.0748Z" fill="#B3B5B7"/>
</svg>
