<svg width="110" height="80" viewBox="0 0 110 80" fill="none" xmlns="http://www.w3.org/2000/svg">
<path d="M91 49.082L82.3363 31.7537L73.6726 49.082H79.508C75.8347 60.5496 65.0915 68.8851 52.4165 68.8851C36.7206 68.8851 23.9492 56.1142 23.9492 40.4178C23.9492 24.7219 36.7206 11.9506 52.4165 11.9506C64.5106 11.9506 74.8429 19.5447 78.9572 30.207L81.8022 24.516C76.1417 14.0923 65.0942 7 52.4187 7C33.9922 6.99956 19 21.9908 19 40.4178C19 58.8435 33.9922 73.8361 52.4183 73.8361C67.8469 73.8361 80.8382 63.3178 84.6667 49.0824H91V49.082Z" fill="#ECD774"/>
<path d="M34.677 47.0855H37.8066L38.7564 43.6621H42.5755L43.6058 47.0855H46.8506L42.7147 33.7473H38.7564L34.677 47.0855ZM39.9819 38.5759C40.1997 37.8033 40.3976 36.7938 40.5959 36.0035H40.6348C40.8332 36.7938 41.0713 37.7865 41.3094 38.5759L42.1408 41.4091H39.192L39.9819 38.5759Z" fill="#ECD774"/>
<path d="M55.1096 36.1029C56.5723 36.1029 57.4824 36.3604 58.2149 36.6745L58.8493 34.2598C58.1959 33.9439 56.8692 33.606 55.1485 33.606C50.7744 33.606 47.5499 36.1378 47.5265 40.5723C47.5079 42.5312 48.1803 44.2709 49.4085 45.4222C50.6357 46.6097 52.3962 47.2229 54.8322 47.2229C56.5904 47.2229 58.3553 46.7877 59.2831 46.4714V39.4458H54.3171V41.8009H56.378V44.5899C56.1385 44.7109 55.5836 44.7882 54.8914 44.7882C52.4156 44.7882 50.6958 43.1638 50.6958 40.4129C50.6958 37.5263 52.5937 36.1029 55.1096 36.1029Z" fill="#ECD774"/>
<path d="M69.8816 36.2226V33.7495H61.6487V47.0855H70.1595V44.6146H64.6771V41.4479H69.5865V38.9916H64.6771V36.2226H69.8816Z" fill="#ECD774"/>
</svg>
