<svg width="132" height="80" viewBox="0 0 132 80" fill="none" xmlns="http://www.w3.org/2000/svg">
<path d="M104.346 6H27.6535C22.8182 6 19 9.90763 19 14.6107V64.5079C19 69.3191 22.9271 73.1184 27.6535 73.1184H104.346C109.182 73.1184 113 69.2108 113 64.5078V14.6107C113 9.79911 109.073 6 104.346 6V6ZM107.492 64.5078C107.492 66.2352 106.086 67.6379 104.346 67.6379H27.6535C25.9174 67.6379 24.5078 66.2389 24.5078 64.5078V14.6107C24.5078 12.8832 25.9138 11.4805 27.6535 11.4805H104.346C106.083 11.4805 107.492 12.8795 107.492 14.6107V64.5078Z" fill="#ECD774"/>
<path d="M55.8545 46.2642C57.4547 44.4814 58.4298 42.1319 58.4298 39.5591C58.4298 34.002 53.8862 29.481 48.3015 29.481C42.7167 29.481 38.1733 34.002 38.1733 39.5591C38.1733 42.1319 39.1484 44.4814 40.7484 46.264C36.5546 48.8081 33.7485 53.4028 33.7485 58.6375C33.7485 60.1508 34.9816 61.3777 36.5024 61.3777H60.1003C61.6212 61.3777 62.8542 60.1508 62.8542 58.6375C62.8542 53.4028 60.0482 48.8083 55.8545 46.2642V46.2642ZM48.3015 34.9615C50.8492 34.9615 52.922 37.024 52.922 39.5591C52.922 42.0942 50.8492 44.1568 48.3015 44.1568C45.7537 44.1568 43.6811 42.0942 43.6811 39.5591C43.6811 37.024 45.7537 34.9615 48.3015 34.9615ZM39.6849 55.8974C40.8525 52.2703 44.2738 49.6373 48.3015 49.6373C52.3291 49.6373 55.7502 52.2702 56.9181 55.8974H39.6849Z" fill="#ECD774"/>
<path d="M95.4974 32.4163H74.8491C73.3282 32.4163 72.0952 33.6432 72.0952 35.1565C72.0952 36.6699 73.3282 37.8968 74.8491 37.8968H95.4974C97.0182 37.8968 98.2513 36.6699 98.2513 35.1565C98.2513 33.6432 97.0182 32.4163 95.4974 32.4163Z" fill="#ECD774"/>
<path d="M95.4973 17.7405H36.5024C34.9816 17.7405 33.7485 18.9674 33.7485 20.4807C33.7485 21.9941 34.9816 23.221 36.5024 23.221H95.4973C97.0182 23.221 98.2513 21.9941 98.2513 20.4807C98.2513 18.9674 97.0182 17.7405 95.4973 17.7405Z" fill="#ECD774"/>
<path d="M95.4974 44.1567H74.8491C73.3282 44.1567 72.0952 45.3837 72.0952 46.897C72.0952 48.4104 73.3282 49.6373 74.8491 49.6373H95.4974C97.0182 49.6373 98.2513 48.4104 98.2513 46.897C98.2513 45.3837 97.0182 44.1567 95.4974 44.1567Z" fill="#ECD774"/>
<path d="M89.5977 55.8975H74.8491C73.3282 55.8975 72.0952 57.1244 72.0952 58.6377C72.0952 60.1511 73.3282 61.378 74.8491 61.378H89.5977C91.1186 61.378 92.3517 60.1511 92.3517 58.6377C92.3517 57.1244 91.1186 55.8975 89.5977 55.8975Z" fill="#ECD774"/>
</svg>
