<svg width="95" height="80" viewBox="0 0 95 80" fill="none" xmlns="http://www.w3.org/2000/svg">
<path d="M62.9729 59.0881L31.3016 59.0835C30.4281 59.0835 29.7183 59.7917 29.7183 60.6669C29.7183 61.5404 30.4265 62.2502 31.3016 62.2502L62.9729 62.2548C63.8465 62.2548 64.5563 61.5466 64.5563 60.6715C64.5562 59.7978 63.8481 59.0881 62.9729 59.0881Z" fill="#ECD774"/>
<path d="M56.6351 65.4211H37.6351C36.76 65.4211 36.0518 66.1293 36.0518 67.0045C36.0518 67.8797 36.76 68.5879 37.6351 68.5879H56.6351C57.5103 68.5879 58.2185 67.8797 58.2185 67.0045C58.2183 66.1292 57.5103 65.4211 56.6351 65.4211Z" fill="#ECD774"/>
<path d="M47.4998 21.0005C37.8962 21.0005 30.0833 28.8134 30.0833 38.417C30.0833 48.0205 37.8962 55.8335 47.4998 55.8335C57.1034 55.8335 64.9164 48.0205 64.9164 38.417C64.9164 28.8134 57.1034 21.0005 47.4998 21.0005ZM33.4099 40.0004H39.6156C39.7909 44.3133 40.6817 48.6026 42.2279 51.6292C37.4529 49.7169 34.0054 45.2941 33.4099 40.0004ZM39.6157 36.8338H33.41C34.0056 31.5401 37.453 27.1174 42.2281 25.205C40.6818 28.2316 39.791 32.5208 39.6157 36.8338ZM47.4998 52.6671C45.6858 52.6671 43.1344 47.7617 42.8132 40.0005H52.1864C51.8652 47.7617 49.3139 52.6671 47.4998 52.6671ZM42.8132 36.8338C43.1344 29.0726 45.6858 24.1672 47.4998 24.1672C49.3139 24.1672 51.8652 29.0726 52.1864 36.8338H42.8132ZM52.7717 51.6293C54.318 48.6026 55.2088 44.3135 55.3841 40.0005H61.5898C60.9942 45.2941 57.5468 49.7169 52.7717 51.6293ZM55.3841 36.8338C55.2088 32.5208 54.318 28.2316 52.7717 25.205C57.5468 27.1174 60.9944 31.5402 61.5898 36.8338H55.3841V36.8338Z" fill="#ECD774"/>
<path d="M69.6665 11.5003H66.4999V8.22842C66.4999 4.76896 63.5725 1.96544 60.1665 2.00032C59.6799 2.00537 59.2541 2.07276 58.7518 2.19982L24.9942 11.5346C21.6615 11.7151 19 14.457 19 17.8336V71.6667C19 75.1595 21.8403 78 25.3334 78H69.6666C73.1595 78 76 75.1597 76 71.6667V17.8336C75.9999 14.3407 73.1595 11.5003 69.6665 11.5003ZM59.565 5.25969C61.4128 4.78811 63.3331 6.2848 63.3331 8.22842V11.5003H36.9992L59.565 5.25969ZM72.8332 71.6667C72.8332 73.4123 71.4123 74.8333 69.6666 74.8333H25.3334C23.5877 74.8333 22.1668 73.4123 22.1668 71.6667V17.8336C22.1668 16.088 23.5877 14.667 25.3334 14.667H69.6666C71.4123 14.667 72.8332 16.088 72.8332 17.8336V71.6667Z" fill="#ECD774"/>
</svg>
