<svg width="110" height="80" viewBox="0 0 110 80" fill="none" xmlns="http://www.w3.org/2000/svg">
<path d="M53.5 42.5212C54.5841 42.5212 55.4629 41.6402 55.4629 40.5533C55.4629 39.4665 54.5841 38.5854 53.5 38.5854C52.4159 38.5854 51.5371 39.4665 51.5371 40.5533C51.5371 41.6402 52.4159 42.5212 53.5 42.5212Z" fill="#ECD774"/>
<path d="M53.5 5C35.0543 5 20 20.0936 20 38.5854C20 57.0784 35.0552 72.1707 53.5 72.1707C71.9459 72.1707 87 57.0771 87 38.5854C87 20.0927 71.9448 5 53.5 5ZM53.5 13.0028C66.2356 13.0028 76.8216 22.4051 78.7156 34.6496H71.9084C67.5924 34.6496 63.4918 32.9132 60.658 29.8858C56.7846 25.7472 50.2158 25.7459 46.342 29.8857C43.5082 32.9132 39.4076 34.6496 35.0915 34.6496H28.2844C30.1784 22.4051 40.7644 13.0028 53.5 13.0028ZM53.5 46.4569C50.2531 46.4569 47.6113 43.8087 47.6113 40.5533C47.6113 37.2978 50.2531 34.6496 53.5 34.6496C56.7471 34.6496 59.3887 37.2978 59.3887 40.5533C59.3887 43.8087 56.7471 46.4569 53.5 46.4569ZM29.7386 47.9128C31.9854 47.0291 33.6078 46.4569 35.834 46.4569C42.9904 46.4569 48.556 52.8505 47.478 60.0341H47.4734C47.3132 61.1336 46.9981 62.199 46.5436 63.2017C38.8545 61.0147 32.632 55.2958 29.7386 47.9128V47.9128ZM60.4579 63.2012C59.991 62.172 59.6827 61.1067 59.5266 60.0341H59.522C58.2659 51.6633 65.9735 44.7564 73.9629 46.792C74.8051 47.0066 75.859 47.3614 77.2613 47.9129C74.3681 55.2953 68.1463 61.014 60.4579 63.2012V63.2012Z" fill="#ECD774"/>
</svg>
